<svg xmlns="http://www.w3.org/2000/svg" version="1.1" x="0" y="0" width="320.6px" height="96.1px" viewBox="0 0 320.6 96.1" preserveAspectRatio="xMidYMid meet" xml:space="preserve"><path d="M63 2v-2h18.1v2H80.6c-2.2 0-3.6 0.4-4.3 1.2 -0.7 0.8-1 2.5-1 5.1v21.8c0 6.7 1.1 11.4 3.4 14 2.3 2.7 5.4 4 9.4 4 3.6 0 6.4-1.3 8.4-3.8 2-2.5 3-6.8 3.1-12.7V8.2c0-2.6-0.3-4.3-1-5.1 -0.7-0.8-2.1-1.2-4.4-1.2h-0.5v-2h15.6v2h-0.4c-2.2 0-3.7 0.4-4.4 1.2 -0.7 0.8-1.1 2.5-1.1 5.1v20.8c0 5.1-0.3 8.7-0.9 10.8 -0.6 2.1-1.8 4.1-3.6 5.8 -3.1 2.9-7.5 4.4-13.3 4.4 -5 0-8.9-1.2-11.8-3.5 -2-1.6-3.3-3.5-4-5.8s-1-5.8-1-10.7V8.2c0-2.6-0.3-4.3-1-5.1 -0.7-0.8-2.2-1.2-4.4-1.2H63zM119.4 21.5v18.9c0 2.6 0.4 4.3 1.1 5.1 0.7 0.8 2.2 1.2 4.4 1.2h0.4v2h-17.6v-2h0.6c2.2 0 3.6-0.4 4.3-1.2 0.7-0.8 1-2.5 1-5.1V26.1c0-2.9 0.1-5.8-0.3-6.6 -0.5-1.1-1.4-1.8-2.7-2 -1.1-0.2-2.8 0-2.8 0l0-0.8 11.7-4.2v7.1c2.5-2.4 4.9-4.2 7.1-5.4 2.2-1.2 4.4-1.8 6.3-1.8 2.8 0 5.2 1 7.1 2.9 1.9 2 2.9 5.7 2.9 11v14.1c0 2.6 0.3 4.3 1 5.1 0.7 0.8 2.2 1.2 4.4 1.2h0.4v2h-17.6v-2h0.5c2.2 0 3.7-0.4 4.3-1.2s1-2.5 1-5V26.1c0-3.1-0.5-5.4-1.5-6.8 -1-1.4-2.7-2.1-5-2.1 -1.7 0-3.4 0.4-5.3 1.1S121.4 20.1 119.4 21.5zM219.4 21.5v18.9c0 2.6 0.4 4.3 1.1 5.1 0.7 0.8 2.2 1.2 4.4 1.2h0.4v2h-17.6v-2h0.6c2.2 0 3.6-0.4 4.3-1.2 0.7-0.8 1-2.5 1-5.1V26.1c0-2.9 0.1-5.8-0.3-6.6 -0.5-1.1-1.4-1.8-2.7-2 -1.1-0.2-2.8 0-2.8 0l0-0.8 11.7-4.2v7.1c2.5-2.4 4.9-4.2 7.1-5.4 2.2-1.2 4.4-1.8 6.3-1.8 2.8 0 5.2 1 7.1 2.9 1.9 2 2.9 5.7 2.9 11v14.1c0 2.6 0.3 4.3 1 5.1 0.7 0.8 2.2 1.2 4.4 1.2h0.4v2h-17.6v-2h0.5c2.2 0 3.7-0.4 4.3-1.2s1-2.5 1-5V26.1c0-3.1-0.5-5.4-1.5-6.8 -1-1.4-2.7-2.1-5-2.1 -1.7 0-3.4 0.4-5.3 1.1S221.4 20.1 219.4 21.5zM163 12.7v27.6c0 2.6 0.3 4.2 1 5s2.1 1.2 4.3 1.2h0.5v2h-17.6v-2h0.6c2.1 0 3.6-0.4 4.2-1.2 0.7-0.8 1-2.5 1-5.1V26.6c0-3.2-0.2-5.5-0.5-6.6 -0.3-1.1-1.1-2.1-3-2.2 -1.2-0.1-2.3 0.1-2.3 0.1v-0.9L163 12.7zM159.1 8.2c-1.2 0-2.1-0.4-2.9-1.2 -0.8-0.8-1.2-1.8-1.2-2.9 0-1.1 0.4-2.1 1.2-2.9 0.8-0.8 1.8-1.2 2.9-1.2 1.2 0 2.1 0.4 2.9 1.2 0.8 0.8 1.2 1.8 1.2 2.9 0 1.2-0.4 2.1-1.2 2.9C161.3 7.9 160.3 8.2 159.1 8.2zM188 49.6c-5.2 0-9.4-1.7-12.8-5.2s-5-7.9-5-13.4c0-5.4 1.7-9.8 5-13.3s7.6-5.2 12.8-5.2c5.2 0 9.5 1.7 12.8 5.2s5 7.9 5 13.3c0 5.4-1.7 9.9-5 13.4S193.2 49.6 188 49.6zM188 47.4c3.3 0 5.9-1.5 7.9-4.5 2-3 3-6.9 3-11.8 0-4.9-1-8.8-3-11.8 -2-3-4.6-4.5-7.9-4.5 -3.2 0-5.8 1.5-7.8 4.5 -2 3-3 6.9-3 11.8 0 4.9 1 8.8 3 11.8C182.2 45.9 184.8 47.4 188 47.4z"/><!-- Made for www.totalmoney.sk --><path d="M320 32.8c-34.2 19-92.9 31.6-159.6 31.6 -66.8 0-125.6-12.6-159.8-31.7L0 33.2c34.1 24.4 93.2 40.5 160.4 40.5 67.1 0 126.1-16.1 160.2-40.4L320 32.8z" fill="#E31837"/><path d="M76.9 95.8V81.4h3.8c1.1 0 2.5 0.1 3.4 0.9 0.9 0.8 1.2 1.9 1.2 3.1 0 1.6-0.5 3.2-2 3.9 -1 0.4-2.6 0.4-3.7 0.4h-1v6.1H76.9zM78.5 88.3h1.6c2.2 0 3.5-0.3 3.5-2.8 0-2.3-1.5-2.7-3.4-2.6h-1.7V88.3zM102.1 96.1c-2.3 0-3.8-1.4-3.8-6 0-3.2 1.2-5.3 3.8-5.3s3.8 2 3.8 5.3C106 94.8 104.5 96.1 102.1 96.1zM102.1 86.1c-1.6 0-2.3 1.2-2.3 4.5 0 2.5 0.5 4.2 2.3 4.2 1.8 0 2.3-1.7 2.3-4.2C104.4 87.4 103.7 86.1 102.1 86.1zM119.7 83.3v-1.9h1.5v1.9H119.7zM119.7 95.8V85.1h1.5v10.7H119.7zM139.8 88c0.1-1.3-0.4-1.9-1.7-1.9 -1.1 0-1.7 0.5-1.7 1.6 0 1.4 1.1 1.6 2.2 2 1.5 0.7 3.1 1.1 3.1 3.1 0 2-1.4 3.3-3.6 3.3 -0.9 0-2.1-0.3-2.7-1.1 -0.6-0.8-0.6-1.6-0.6-2.3h1.4c-0.1 1.3 0.4 2.1 1.8 2.1 1.2 0 2-0.5 2-1.8 0-1.5-1.5-1.7-2.6-2.1 -1.7-0.6-2.6-1.2-2.6-3 0-1.9 1.3-3 3.1-3 2.1 0 3.4 1 3.3 3.2H139.8zM157 85.1h1.8v1.3h-1.8v7.3c0 0.4-0.1 0.8 0.7 0.8h1v1.3h-1.7c-0.9 0-1.6-0.1-1.6-1.8v-7.7h-1.5v-1.3h1.5v-2.9h1.5V85.1zM158.4 82.8v-1.4h1.5c0 0.2 0 1.1 0 1.7 0 0.6-0.2 1.2-0.8 1.5 -0.2 0.1-0.4 0.2-0.6 0.3v-0.6c0.1 0 0.3-0.1 0.4-0.2 0.4-0.3 0.4-0.8 0.4-1.2H158.4zM175.4 96.1c-2.3 0-3.8-1.4-3.8-6 0-3.2 1.2-5.3 3.8-5.3 2.6 0 3.8 2 3.8 5.3C179.3 94.8 177.8 96.1 175.4 96.1zM175.4 86.1c-1.6 0-2.3 1.2-2.3 4.5 0 2.5 0.5 4.2 2.3 4.2 1.8 0 2.3-1.7 2.3-4.2C177.7 87.4 177 86.1 175.4 86.1zM191.8 85.1h1.6l2.4 9.4h0l2.4-9.4h1.6l-3.2 10.7h-1.7L191.8 85.1zM214.4 86.3c0.8-0.9 1.6-1.5 2.7-1.5 1.6 0 2.6 0.8 2.6 2.7v8.3h-1.5v-7.8c0-1.1-0.4-1.9-1.6-1.9 -0.6 0-1.1 0.2-1.5 0.6 -0.6 0.6-0.7 1.2-0.7 1.9v7.2h-1.5V85.1h1.5V86.3zM216.4 82.9l1.3-1.8h1.5l-1.9 2.7h-1.8l-1.9-2.7h1.5L216.4 82.9zM240.6 95.8c-0.1 0-0.2 0-0.3 0.1 -1.3 0.1-1.8-0.1-1.9-1.5h0c-0.4 0.9-1.3 1.7-2.4 1.7 -2.1 0-2.8-1.2-2.8-3.1 0-0.4 0.1-1.9 1.5-2.6 0.9-0.4 3-1.2 3.2-1.3 0.3-0.2 0.3-0.7 0.3-1.2 0-1.2-0.5-1.7-1.7-1.7 -1.4 0-1.6 0.6-1.6 1.9h-1.4c-0.1-2.2 1-3.2 3.2-3.2 3.2 0 2.9 2.7 2.9 2.9v6.2c0 0.3 0 0.7 0.3 0.8 0.2 0.1 0.4 0 0.7 0V95.8zM238 90.1c-0.8 0.4-1.6 0.8-2.4 1.2 -0.7 0.3-0.9 1.1-0.9 1.9 0 1.1 0.3 1.8 1.5 1.8 0.6 0 1.9-0.4 1.9-2.2V90.1z"/></svg>