<?xml version="1.0" encoding="utf-8"?>
<svg version="1.1" xmlns="http://www.w3.org/2000/svg" xmlns:xlink="http://www.w3.org/1999/xlink" x="0px" y="0px" width="240px" height="180px" viewBox="0 0 240 180" style="enable-background:new 0 0 240 180;" preserveAspectRatio="xMidYMid meet" xml:space="preserve">
<style type="text/css">
	.st0{opacity:0.48;fill:#FFFFFF;}
	.st1{fill:url(#SVGID_1_);}
	.st2{fill:url(#SVGID_2_);}
	.st3{fill:#FFFFFF;}
</style>
<polygon class="st0" points="240,48 192,48 192,0 176,0 176,48 0,48 0,64 176,64 176,180 192,180 192,64 240,64 "/>
<linearGradient id="SVGID_1_" gradientUnits="userSpaceOnUse" x1="140.6471" y1="55.9856" x2="178" y2="55.9856">
	<stop  offset="0.5" style="stop-color:#FFFFFF"/>
	<stop  offset="1" style="stop-color:#D8DBE0"/>
</linearGradient>
<path class="st1" d="M146,76c7.1,7.1,32-10.41,32-10.41V46.4c0,0-24.82-17.58-32-10.4S138.9,68.9,146,76z"/>
<linearGradient id="SVGID_2_" gradientUnits="userSpaceOnUse" x1="91.2943" y1="55.9856" x2="128.6471" y2="55.9856" gradientTransform="matrix(-1 0 0 1 318.6471 0)">
	<stop  offset="0.5" style="stop-color:#FFFFFF"/>
	<stop  offset="1" style="stop-color:#D8DBE0"/>
</linearGradient>
<path class="st2" d="M222,76c-7.1,7.1-32-10.41-32-10.41V46.4c0,0,24.82-17.58,32-10.4S229.1,68.9,222,76z"/>
<ellipse class="st3" cx="184" cy="56" rx="10" ry="12"/>
</svg>
