<?xml version="1.0" encoding="utf-8"?>
<svg version="1.1" xmlns="http://www.w3.org/2000/svg" xmlns:xlink="http://www.w3.org/1999/xlink" x="0px" y="0px" width="48px" height="48px" viewBox="0 0 48 48" style="enable-background:new 0 0 48 48;" preserveAspectRatio="xMidYMid meet" xml:space="preserve">
<path style="fill:#F28C38;" d="M24,6c9.92523,0,18,8.07477,18,18s-8.07477,18-18,18S6,33.92523,6,24S14.07477,6,24,6 M24,0
	C10.74517,0,0,10.74517,0,24s10.74517,24,24,24s24-10.74517,24-24S37.25483,0,24,0L24,0z"/>
<g>
	<path style="fill:#F28C38;" d="M32.79266,26.0426L27,22.69818V12c0-1.10004-0.90002-2-2-2h-2c-1.09998,0-2,0.89996-2,2v13
		c0,0.0238,0.00623,0.0459,0.00708,0.06952c0.0025,0.07355,0.01166,0.14557,0.02216,0.2182
		c0.00824,0.05621,0.0152,0.11224,0.02808,0.16687c0.01843,0.07977,0.04492,0.15649,0.07288,0.23346
		c0.01483,0.0401,0.02728,0.08087,0.04462,0.11969c0.04138,0.09473,0.09235,0.18433,0.14819,0.27209
		c0.01019,0.01563,0.01855,0.03229,0.02911,0.04767c0.06775,0.10022,0.14557,0.19318,0.23187,0.28064
		c0.00183,0.00189,0.00336,0.00391,0.00525,0.00574c0.08563,0.08612,0.18048,0.16339,0.28339,0.23413
		c0.00604,0.00415,0.01166,0.00873,0.01776,0.01282c0.03717,0.0249,0.06879,0.05524,0.10809,0.07794l7.79419,4.5
		c0.95264,0.54999,2.18207,0.22058,2.73206-0.73206l1-1.73206C34.07471,27.82202,33.7453,26.59259,32.79266,26.0426z"/>
</g>
</svg>
