<?xml version="1.0" encoding="utf-8"?>
<svg version="1.1" xmlns="http://www.w3.org/2000/svg" xmlns:xlink="http://www.w3.org/1999/xlink" x="0px" y="0px" width="64px" height="64px" viewBox="0 0 64 64" style="enable-background:new 0 0 64 64;" preserveAspectRatio="xMidYMid meet" xml:space="preserve">
<g>
	<path fill="#E0E2E6" d="M58.5,42.78949V32.44355c0,0-0.58871,0.32258-4,1.49193v8.85401c-1.19446,0.69193-2,1.9808-2,3.46051
		c0,2.20914,1.79086,4,4,4s4-1.79086,4-4C60.5,44.77029,59.69446,43.48141,58.5,42.78949z"/>
	<g>
		<path fill="#E0E2E6" d="M56.97113,19.58301l-23-8C33.33282,11.36099,32.66641,11.25,32,11.25s-1.33282,0.11099-1.97113,0.33301l-23,8
			C4.6167,20.42203,3,22.69604,3,25.25c0,2.55392,1.6167,4.82794,4.02887,5.66696L12,32.64606V40.75
			c0,2.40015,1.43039,4.5694,3.63647,5.51486l14,6C30.39111,52.58829,31.19556,52.75,32,52.75s1.60886-0.16171,2.36353-0.48514
			l14.00003-6c2.20612-0.94547,3.63647-3.11472,3.63647-5.51489L52,32.64606l4.97113-1.7291C59.3833,30.07794,61,27.80392,61,25.25
			C61,22.69604,59.3833,20.42203,56.97113,19.58301z M46.00003,40.75L32,46.75l-14.00003-6H18v-6.017l12.02887,4.18396
			C30.66718,39.13898,31.33359,39.25,32,39.25s1.33282-0.11102,1.97113-0.33304L46,34.733v6.017H46.00003z M51.54242,26.45264
			L44.9375,28.75L32,33.25l-12.9375-4.5l-6.60495-2.29736L9,25.25l23-8l23,8L51.54242,26.45264z"/>
	</g>
</g>
</svg>
