<?xml version="1.0" encoding="utf-8"?>
<svg version="1.1" id="Layer_1" xmlns="http://www.w3.org/2000/svg" xmlns:xlink="http://www.w3.org/1999/xlink" x="0px" y="0px"
	 width="64px" height="64px" viewBox="0 0 64 64" style="enable-background:new 0 0 64 64;" preserveAspectRatio="xMidYMid meet" xml:space="preserve">
<g>
	<path fill="#F28C38" d="M25.81797,14.66469c-0.03902-0.02253-0.07896-0.04383-0.11995-0.06393l-3.59262-1.7613
		c-0.98797-0.48436-2.19261-0.07235-2.67697,0.91562l-8.80658,17.96307c-0.46424,0.94695-0.10493,2.09305,0.79571,2.61303
		c0.03899,0.02251,0.07892,0.04384,0.11995,0.06393l3.5926,1.76132c0.98797,0.48436,2.1926,0.07231,2.67696-0.91566
		l8.80659-17.96303C27.07792,16.33076,26.71858,15.18466,25.81797,14.66469z"/>
	<path fill="#FFFFFF" d="M47.69448,4.3245l-0.00005-0.00003c-9.44616-5.45374-20.96218-2.30043-25.64908,6.39977
		c0.31894,0.06683,0.63505,0.16904,0.94073,0.31891l3.5926,1.76132c0.08189,0.04016,0.16167,0.08269,0.23958,0.12768
		c0.22246,0.12844,0.42766,0.2761,0.61567,0.43893c1.40663-2.48642,3.73404-4.32063,6.61823-5.1967
		c3.45932-1.05075,7.33798-0.55952,10.64146,1.34774c3.30345,1.90725,5.66818,5.02061,6.48786,8.54187
		c0.73333,3.15022,0.19194,6.29749-1.52432,8.86199L31.99924,53.31105c-2.34018,3.49675-8.4368,4.07244-13.31304,1.25714
		c-4.87621-2.81528-7.42593-8.38295-5.56775-12.15797l2.04011-4.14458c-0.31089-0.06807-0.61632-0.16936-0.90909-0.31291
		l-3.59262-1.7613c-0.08192-0.04018-0.16168-0.08274-0.23959-0.12772c-0.23148-0.13364-0.44429-0.28802-0.6384-0.45879
		L7.73375,39.7597c-3.32826,6.76151,0.32845,15.60489,7.95159,20.00611l0.00005,0.00003
		c7.62315,4.40123,17.11009,3.14634,21.3016-3.11678l17.65793-26.38505C60.29782,21.8173,57.3387,9.89259,47.69448,4.3245z"/>
</g>
</svg>
