<?xml version="1.0" encoding="utf-8"?>
<svg version="1.1" xmlns="http://www.w3.org/2000/svg" xmlns:xlink="http://www.w3.org/1999/xlink" x="0px" y="0px" width="48px" height="48px" viewBox="0 0 48 48" style="enable-background:new 0 0 48 48;" preserveAspectRatio="xMidYMid meet" xml:space="preserve">
<path style="fill:#F28C38;" d="M13.5,33.75c4.1355,0,7.5,3.3645,7.5,7.5h6c0-7.45587-6.04419-13.5-13.5-13.5S0,33.79413,0,41.25h6
	C6,37.1145,9.3645,33.75,13.5,33.75z"/>
<path style="fill:#F28C38;" d="M34.5,33.75c4.1355,0,7.5,3.3645,7.5,7.5h6c0-7.45587-6.04419-13.5-13.5-13.5S21,33.79413,21,41.25h6
	C27,37.1145,30.3645,33.75,34.5,33.75z"/>
<path style="fill:#F28C38;" d="M2,43.25h2c1.10457,0,2-0.89543,2-2v0H0v0C0,42.35457,0.89543,43.25,2,43.25z"/>
<path style="fill:#F28C38;" d="M23,43.25h2c1.10457,0,2-0.89543,2-2v0h-6v0C21,42.35457,21.89543,43.25,23,43.25z"/>
<path style="fill:#F28C38;" d="M44,43.25H46c1.10457,0,2-0.89543,2-2v0h-6v0C42,42.35457,42.89543,43.25,44,43.25z"/>
<g>
	<path style="fill:#F28C38;" d="M12.5,10.75c1.92991,0,3.5,1.57009,3.5,3.5s-1.57009,3.5-3.5,3.5S9,16.17991,9,14.25
		S10.57009,10.75,12.5,10.75 M12.5,4.75c-5.24671,0-9.5,4.25329-9.5,9.5s4.25329,9.5,9.5,9.5s9.5-4.25329,9.5-9.5
		S17.74671,4.75,12.5,4.75L12.5,4.75z"/>
</g>
<g>
	<path style="fill:#F28C38;" d="M35.5,10.75c1.92991,0,3.5,1.57009,3.5,3.5s-1.57009,3.5-3.5,3.5s-3.5-1.57009-3.5-3.5
		S33.57009,10.75,35.5,10.75 M35.5,4.75c-5.24671,0-9.5,4.25329-9.5,9.5s4.25329,9.5,9.5,9.5s9.5-4.25329,9.5-9.5
		S40.74671,4.75,35.5,4.75L35.5,4.75z"/>
</g>
</svg>
