<?xml version="1.0" encoding="utf-8"?>
<svg version="1.1" id="Layer_1" xmlns="http://www.w3.org/2000/svg" xmlns:xlink="http://www.w3.org/1999/xlink" x="0px" y="0px"
	 width="64px" height="64px" viewBox="0 0 64 64" style="enable-background:new 0 0 64 64;" preserveAspectRatio="xMidYMid meet" xml:space="preserve">
<g>
	<path fill="#FFFFFF" d="M22.79561,30.11646c0.82042-1.42101,0.33355-3.23804-1.08746-4.05846c-1.42101-0.82042-3.23804-0.33355-4.05846,1.08746
		L7.25119,45.1562c-0.54467,0.9434-0.21845,2.16095,0.72497,2.70564l8.57654,4.95166
		c0.82042-1.42101,2.63745-1.90788,4.05846-1.08746s1.90788,2.63745,1.08746,4.05846l8.57654,4.95167
		c0.94342,0.54469,2.16097,0.21843,2.70564-0.72498l10.3985-18.01073c0.82042-1.42101,0.33355-3.23804-1.08746-4.05846
		c-1.42101-0.82042-3.23804-0.33355-4.05846,1.08746l-8.41784,14.58012l-1.97026-1.13753
		c-0.50308-2.39491-1.98202-4.57494-4.26312-5.89193c-2.28113-1.31701-4.90853-1.50778-7.23412-0.74601l-1.97026-1.13754
		L22.79561,30.11646z"/>
	<path fill="#F28C38" d="M42.30137,8.2155l-8.57654-4.95167c-0.94342-0.54469-2.16096-0.21845-2.70564,0.72497l-9.90334,17.15308
		c-0.54469,0.94342-0.21845,2.16096,0.72498,2.70564l3.43061,1.98067c1.42101,0.82042,3.23804,0.33355,4.05846-1.08746
		c0.82042-1.42101,0.33355-3.23804-1.08746-4.05846l0.39134-0.67781l5.55066-9.61403l1.97026,1.13753
		c0.50308,2.39491,1.98199,4.57492,4.26312,5.89193c2.2811,1.317,4.90853,1.50778,7.23412,0.74601l1.97026,1.13753l-5.55066,9.61403
		l-0.39134,0.67782c-1.42101-0.82042-3.23804-0.33355-4.05846,1.08746c-0.82042,1.42101-0.33355,3.23804,1.08746,4.05846
		l3.43061,1.98067c0.94342,0.54469,2.16095,0.21845,2.70564-0.72498l9.90333-17.15308
		c0.54469-0.94342,0.21845-2.16095-0.72497-2.70564l-8.57654-4.95167c-0.82042,1.42101-2.63745,1.90788-4.05846,1.08746
		S41.48095,9.63651,42.30137,8.2155z"/>
	<path fill="#F28C38" d="M37.90644,29.6924c0.81702-1.41512,0.32766-3.24144-1.08746-4.05846l-1.71531-0.99033
		c-1.41512-0.81702-3.24144-0.32766-4.05846,1.08746c-0.81702,1.41512-0.32766,3.24144,1.08746,4.05846l1.71531,0.99033
		C35.26311,31.59688,37.08942,31.10752,37.90644,29.6924z"/>
</g>
</svg>
