<?xml version="1.0" encoding="utf-8"?>
<svg version="1.1" id="Layer_1" xmlns="http://www.w3.org/2000/svg" xmlns:xlink="http://www.w3.org/1999/xlink" x="0px" y="0px"
	 width="64px" height="64px" viewBox="0 0 64 64" style="enable-background:new 0 0 64 64;" preserveAspectRatio="xMidYMid meet" xml:space="preserve">
<g>
	<g>
		<path fill="#FFFFFF" d="M30.01451,23.93602c0.65708,0.37936,1.16151,0.92048,1.50105,1.54221L43.43027,6.69345
			c1.09894-1.90343,0.94025-5.22507-0.96317-6.32402s-4.8594,0.42445-5.95834,2.32788L26.19799,22.40816
			c0.70819-0.01686,1.42906,0.14946,2.08614,0.52882L30.01451,23.93602z"/>
		<path fill="#FFFFFF" d="M22.28992,33.31926c-0.75239-0.43439-1.30651-1.07971-1.63861-1.81726L11.0374,46.81499
			c-0.5517,0.95557-0.22127,2.18875,0.73428,2.74043l3.45379,1.99405c0.95171,0.54947,2.17994,0.22037,2.72941-0.73134
			l8.4584-15.98935c-0.80474,0.08116-1.64061-0.0761-2.39297-0.51048L22.28992,33.31926z"/>
		<path fill="#F28C38" d="M29.01548,25.6664l-1.73038-0.99903c-0.95171-0.54947-2.17994-0.22037-2.72941,0.73134l-1.99807,3.46076
			c-0.54947,0.95171-0.22037,2.17994,0.73134,2.72941l1.73038,0.99903c0.95171,0.54947,2.17994,0.22037,2.72941-0.73134
			l1.99807-3.46076C30.29629,27.4441,29.96719,26.21587,29.01548,25.6664z"/>
	</g>
	<g>
		<path fill="#FFFFFF" d="M39.13006,36.1204c0.65708,0.37936,1.16151,0.92049,1.50105,1.54221l11.9147-18.78478
			c1.09895-1.90343,0.94026-5.22507-0.96317-6.32402s-4.8594,0.42445-5.95835,2.32788L35.31355,34.59254
			c0.70819-0.01685,1.42906,0.14946,2.08614,0.52882L39.13006,36.1204z"/>
		<path fill="#FFFFFF" d="M31.40547,45.50364c-0.75239-0.43439-1.30651-1.07971-1.63861-1.81726l-9.61391,15.31299
			c-0.5517,0.95557-0.22127,2.18876,0.73428,2.74044l3.45379,1.99405c0.95171,0.54947,2.17994,0.22037,2.72941-0.73135
			l8.4584-15.98935c-0.80474,0.08116-1.64061-0.0761-2.39297-0.51048L31.40547,45.50364z"/>
		<path fill="#F28C38" d="M38.13103,37.85078l-1.73038-0.99903c-0.95171-0.54947-2.17994-0.22037-2.72941,0.73134l-1.99807,3.46076
			c-0.54947,0.95171-0.22037,2.17994,0.73134,2.72942l1.73038,0.99903c0.95171,0.54947,2.17994,0.22037,2.72941-0.73135
			l1.99807-3.46076C39.41184,39.62848,39.08274,38.40025,38.13103,37.85078z"/>
	</g>
</g>
</svg>
