<?xml version="1.0" encoding="utf-8"?>
<svg version="1.1" xmlns="http://www.w3.org/2000/svg" xmlns:xlink="http://www.w3.org/1999/xlink" x="0px" y="0px" width="64px" height="64px" viewBox="0 0 64 64" style="enable-background:new 0 0 64 64;" preserveAspectRatio="xMidYMid meet" xml:space="preserve">
<g>
	<path fill="#E0E2E6" d="M41.44016,44.52072L35,38.08057V36.5h-6v1.58032l-6.44031,6.44031c1.50821,1.42963,2.6127,3.2796,3.12305,5.36176
		l6.31717-6.31732l6.31738,6.3172C38.82761,47.80026,39.93204,45.95029,41.44016,44.52072z"/>
	<g>
		<circle fill="#E0E2E6" cx="32" cy="9.5" r="6"/>
		<path fill="#E0E2E6" d="M32.00002,23.5C33.65422,23.5,35,24.84578,35,26.49998V28.5h-6v-2C29,24.8458,30.3458,23.5,32.00002,23.5 M32.00002,17.5
			H32c-4.97057,0-9,4.02943-9,9v5.99899C23,33.60412,23.89588,34.5,25.00102,34.5H39c1.10457,0,2-0.89543,2-2v-6.00002
			C41,21.52943,36.97057,17.5,32.00002,17.5L32.00002,17.5z"/>
	</g>
	<g>
		<circle fill="#E0E2E6" cx="15" cy="35.5" r="6"/>
		<path fill="#E0E2E6" d="M15.00002,49.5C16.65422,49.5,18,50.84578,18,52.49998V54.5h-6v-2C12,50.8458,13.3458,49.5,15.00002,49.5 M15.00002,43.5
			H15c-4.97057,0-9,4.02943-9,9v5.99899C6,59.60412,6.89588,60.5,8.00102,60.5H22c1.10457,0,2-0.89543,2-2v-6.00002
			C24,47.52943,19.97057,43.5,15.00002,43.5L15.00002,43.5z"/>
	</g>
	<g>
		<circle fill="#E0E2E6" cx="49" cy="35.5" r="6"/>
		<path fill="#E0E2E6" d="M49.00002,49.5C50.65422,49.5,52,50.84578,52,52.49998V54.5h-6v-2C46,50.8458,47.3458,49.5,49.00002,49.5 M49.00002,43.5
			H49c-4.97057,0-9,4.02943-9,9v5.99899C40,59.60412,40.89588,60.5,42.00101,60.5H56c1.10457,0,2-0.89543,2-2v-6.00002
			C58,47.52943,53.97057,43.5,49.00002,43.5L49.00002,43.5z"/>
	</g>
</g>
</svg>
