<?xml version="1.0" encoding="utf-8"?>
<svg version="1.1" id="Layer_1" xmlns="http://www.w3.org/2000/svg" xmlns:xlink="http://www.w3.org/1999/xlink" x="0px" y="0px" width="48px" height="48px" viewBox="0 0 48 48" style="enable-background:new 0 0 48 48;" preserveAspectRatio="xMidYMid meet" xml:space="preserve">
<g>
	<path style="fill:#F28C38;" d="M43,8h-4h-3V4c0-1.105-0.895-2-2-2h-2c-1.105,0-2,0.895-2,2v4H18V4c0-1.105-0.895-2-2-2h-2
		c-1.105,0-2,0.895-2,2v4H9H5c-1.105,0-2,0.895-2,2v35c0,1.105,0.895,2,2,2h4h30h4c1.105,0,2-0.895,2-2V10C45,8.895,44.105,8,43,8z
		 M39,41H9V14h30V41z"/>
	<path style="fill:#F28C38;" d="M23,26h2c1.105,0,2-0.895,2-2v-2c0-1.105-0.895-2-2-2h-2c-1.105,0-2,0.895-2,2v2C21,25.105,21.895,26,23,26z"
		/>
	<path style="fill:#F28C38;" d="M14,26h2c1.105,0,2-0.895,2-2v-2c0-1.105-0.895-2-2-2h-2c-1.105,0-2,0.895-2,2v2C12,25.105,12.895,26,14,26z"
		/>
	<path style="fill:#F28C38;" d="M32,26h2c1.105,0,2-0.895,2-2v-2c0-1.105-0.895-2-2-2h-2c-1.105,0-2,0.895-2,2v2C30,25.105,30.895,26,32,26z"
		/>
	<path style="fill:#F28C38;" d="M23,35h2c1.105,0,2-0.895,2-2v-2c0-1.105-0.895-2-2-2h-2c-1.105,0-2,0.895-2,2v2C21,34.105,21.895,35,23,35z"
		/>
	<path style="fill:#F28C38;" d="M14,35h2c1.105,0,2-0.895,2-2v-2c0-1.105-0.895-2-2-2h-2c-1.105,0-2,0.895-2,2v2C12,34.105,12.895,35,14,35z"
		/>
	<path style="fill:#F28C38;" d="M32,35h2c1.105,0,2-0.895,2-2v-2c0-1.105-0.895-2-2-2h-2c-1.105,0-2,0.895-2,2v2C30,34.105,30.895,35,32,35z"
		/>
</g>
</svg>
