<?xml version="1.0" encoding="utf-8"?>
<svg version="1.1" xmlns="http://www.w3.org/2000/svg" xmlns:xlink="http://www.w3.org/1999/xlink" x="0px" y="0px" width="64px" height="64px" viewBox="0 0 64 64" style="enable-background:new 0 0 64 64;" preserveAspectRatio="xMidYMid meet" xml:space="preserve">
<g>
	<circle fill="#E0E2E6" cx="37" cy="56" r="6"/>
	<path fill="#E0E2E6" d="M40,21h-4.00693c-0.00192,0.00269-0.00424,0.0061-0.00616,0.00879C34.03445,23.74194,31.0639,27,28,27l11.97412-0.00024
		C41.15332,27.021,45,27.44434,45,32s-3.84668,4.979-5,5H24c-4.42163,0-11,2.92969-11,11s6.57837,11,11,11h5.68503
		C29.25052,58.08923,29,57.07452,29,56s0.25052-2.08923,0.68503-3h-5.65939C22.84668,52.979,19,52.55566,19,48s3.84668-4.979,5-5h16
		c4.42188,0,11-2.92969,11-11C51,23.92944,44.42188,21,40,21z"/>
	<path fill="#E0E2E6" d="M28,2c-4.96265,0-9,4.03735-9,9c0,4.70654,6.21118,13,9,13s9-8.29346,9-13C37,6.03735,32.9624,2,28,2z M28,12
		c-1.10458,0-2-0.89545-2-2c0-1.10458,0.89542-2,2-2s2,0.89542,2,2C30,11.10455,29.10458,12,28,12z"/>
</g>
</svg>
